<svg xmlns="http://www.w3.org/2000/svg" viewBox="0 0 175.68 334.43"><defs><style>.cls-1,.cls-6{fill:#575756;}.cls-1{stroke:#575756;}.cls-1,.cls-2,.cls-3,.cls-4{stroke-miterlimit:10;}.cls-2,.cls-4{fill:none;}.cls-2{stroke:#1d1d1b;}.cls-3{fill:#3c3c3b;}.cls-3,.cls-4{stroke:#3c3c3b;}.cls-5{fill:#f39200;}</style></defs><g id="Layer_2" data-name="Layer 2"><g id="Layer_1-2" data-name="Layer 1"><path class="cls-1" d="M87.84.5a87.35,87.35,0,1,0,71.61,137.35h0A87.36,87.36,0,0,0,87.84.5Zm.45,164.32a77.43,77.43,0,1,1,77.44-77.43A77.43,77.43,0,0,1,88.29,164.82Z"/><path class="cls-2" d="M156.78,87.58A68.19,68.19,0,1,1,88.59,19.39,68.19,68.19,0,0,1,156.78,87.58Z"/><path class="cls-3" d="M88.29,10a77.43,77.43,0,1,0,77.44,77.43A77.43,77.43,0,0,0,88.29,10Zm.3,145.81a68.19,68.19,0,1,1,68.19-68.19A68.18,68.18,0,0,1,88.59,155.77Z"/><path class="cls-2" d="M156.78,87.58A68.19,68.19,0,1,1,88.59,19.39,68.19,68.19,0,0,1,156.78,87.58Z"/><path class="cls-4" d="M156.78,87.58A68.19,68.19,0,1,1,88.59,19.39,68.19,68.19,0,0,1,156.78,87.58Z"/><path class="cls-5" d="M153.83,279.83v29.08l-18.78,25.52H118.42l-2-2H66.2l-2.57,2H45.43l-19.38-25V280h1.78V175.19h3.82s5-1.05,5,4.49V309.17L54.2,326.71h71.87l17.21-17.21V180.21s-1.38-7.13,4.42-7.13h4.35V279.83Z"/><path class="cls-6" d="M159.46,137.85V156.4l-7.41,8.42v8.26H147.7c-5.8,0-4.42,7.13-4.42,7.13V309.5l-17.21,17.21H54.2L36.67,309.17V179.68c0-5.54-5-4.49-5-4.49H27.83V164.68l-10.09-8.29V140a87.34,87.34,0,0,0,141.71-2.1Z"/><path class="cls-4" d="M152.21,173.08h-.16"/></g></g></svg>