<svg xmlns="http://www.w3.org/2000/svg" xmlns:xlink="http://www.w3.org/1999/xlink" viewBox="0 0 130.56 130.39"><defs><style>.cls-1,.cls-4{fill:#575756;}.cls-2{fill:#3c3c3b;}.cls-3,.cls-4{stroke:#575756;stroke-miterlimit:10;}.cls-3{fill:url(#radial-gradient);}</style><radialGradient id="radial-gradient" cx="65.39" cy="65.69" r="19.8" gradientTransform="translate(30.12 -20.02) rotate(22.5)" gradientUnits="userSpaceOnUse"><stop offset="0" stop-color="#3c3c3b"/><stop offset="0.59" stop-color="#3e3e3d"/><stop offset="0.8" stop-color="#454544"/><stop offset="0.95" stop-color="#50504f"/><stop offset="1" stop-color="#575756"/></radialGradient></defs><g id="Layer_2" data-name="Layer 2"><g id="Layer_1-2" data-name="Layer 1"><path class="cls-1" d="M100.25,120.62,74.69,84.79a24.8,24.8,0,0,0,6.57-5.43,22.5,22.5,0,0,0,1.63-2.14l24.51,38.4A56.06,56.06,0,0,1,100.25,120.62Z"/><path class="cls-2" d="M107.4,115.62,82.89,77.22A24,24,0,0,0,85,73.53l37.92,22a56.23,56.23,0,0,1-10.12,15A54.59,54.59,0,0,1,107.4,115.62Z"/><circle class="cls-3" cx="65.39" cy="65.69" r="19.8" transform="translate(-20.16 30.02) rotate(-22.5)"/><path class="cls-4" d="M65.39,44.09A21.6,21.6,0,1,0,87,65.69,21.61,21.61,0,0,0,65.39,44.09Zm0,41.4a19.8,19.8,0,1,1,19.8-19.8A19.79,19.79,0,0,1,65.39,85.49Z"/><path class="cls-1" d="M79.15,1.8q-3.65,21.71-7.27,43.41a25.11,25.11,0,0,0-8.48-.81,23,23,0,0,0-2.67.36L70.55.28A55.8,55.8,0,0,1,79.15,1.8Z"/><path class="cls-2" d="M70.55.28,60.73,44.76a24,24,0,0,0-4.08,1.13Q51,24.7,45.39,3.51A56.55,56.55,0,0,1,63.19,0,55.93,55.93,0,0,1,70.55.28Z"/><path class="cls-1" d="M119.18,31Q101.26,43.8,83.35,56.59A25.35,25.35,0,0,0,77.92,50a23.84,23.84,0,0,0-2.14-1.63l38.4-24.51A56.06,56.06,0,0,1,119.18,31Z"/><path class="cls-2" d="M114.18,23.89,75.78,48.4a23.18,23.18,0,0,0-3.69-2.09l22-37.93a56.55,56.55,0,0,1,15.05,10.13A53.5,53.5,0,0,1,114.18,23.89Z"/><path class="cls-1" d="M128.77,79.05q-21.71-3.64-43.41-7.26a25,25,0,0,0,.8-8.49,23,23,0,0,0-.36-2.67l44.49,9.83A58.17,58.17,0,0,1,128.77,79.05Z"/><path class="cls-2" d="M130.29,70.46,85.8,60.63a23.37,23.37,0,0,0-1.13-4.08L127.05,45.3a56.22,56.22,0,0,1,3.24,25.16Z"/><path class="cls-1" d="M50.92,128.59q3.64-21.7,7.26-43.41a24.59,24.59,0,0,0,11.16.45l-9.83,44.48A56.88,56.88,0,0,1,50.92,128.59Z"/><path class="cls-2" d="M59.51,130.11l9.83-44.48a24.48,24.48,0,0,0,4.08-1.14l11.25,42.38a56.22,56.22,0,0,1-25.16,3.24Z"/><path class="cls-1" d="M10.88,99.44,46.72,73.88a24.93,24.93,0,0,0,5.42,6.57,23.92,23.92,0,0,0,2.15,1.63l-38.4,24.51A57.29,57.29,0,0,1,10.88,99.44Z"/><path class="cls-2" d="M15.89,106.59l38.4-24.51A23.94,23.94,0,0,0,58,84.17q-11,19-22,37.92a56.39,56.39,0,0,1-15-10.12A55.66,55.66,0,0,1,15.89,106.59Z"/><path class="cls-1" d="M1.8,50.75Q23.51,54.4,45.21,58a25.14,25.14,0,0,0-.81,8.48,22.88,22.88,0,0,0,.36,2.68L.28,59.34A55.65,55.65,0,0,1,1.8,50.75Z"/><path class="cls-2" d="M.28,59.34l44.48,9.83a24.55,24.55,0,0,0,1.13,4.08L3.51,84.5A56.35,56.35,0,0,1,.28,59.34Z"/><path class="cls-1" d="M31.13,10.79,56.69,46.62a25.16,25.16,0,0,0-6.57,5.43,22.5,22.5,0,0,0-1.63,2.14L24,15.79A56.78,56.78,0,0,1,31.13,10.79Z"/><path class="cls-2" d="M24,15.79l24.51,38.4a23,23,0,0,0-2.08,3.69l-37.93-22A56.35,56.35,0,0,1,24,15.79Z"/></g></g></svg>